<svg id="Layer_1" data-name="Layer 1" xmlns="http://www.w3.org/2000/svg" viewBox="0 0 742.55 291.66"><defs><style>.cls-1{fill:#0066b3;}.cls-1,.cls-2{fill-rule:evenodd;}.cls-2{fill:#7ec349;}</style></defs><title>lisfy</title><path class="cls-1" d="M42,200.81a17.78,17.78,0,0,1-3.79-7.72,50,50,0,0,1-1.06-11.21V.46L.45,6.52V188.85A78.42,78.42,0,0,0,3,209.9,33.66,33.66,0,0,0,12,225.34q6.36,6.22,17.11,9.54t27.11,3.64l5.15-30.29a57.74,57.74,0,0,1-12-2.57A16.93,16.93,0,0,1,42,200.81Zm49.36,34.68H128V77.09H91.31Zm176.12-73.75a60,60,0,0,0-15-10.6,204.14,204.14,0,0,0-22.11-9.54A133.89,133.89,0,0,1,217,136.3a47.26,47.26,0,0,1-8.78-5.15,14.89,14.89,0,0,1-4.7-5.6,16.8,16.8,0,0,1-1.36-7,12.44,12.44,0,0,1,7-11.66q7-3.78,18.17-3.78a93.05,93.05,0,0,1,21.8,2.27,90.19,90.19,0,0,1,15.45,5l6.66-29.68a129.75,129.75,0,0,0-19.08-5,133.86,133.86,0,0,0-26.65-2.58q-27.57,0-43.61,12.57T165.81,120.1q0,11.21,3.49,18.93a39,39,0,0,0,9.54,13.17,62,62,0,0,0,14.38,9.54,183,183,0,0,0,18.33,7.72q16.35,6.07,23.47,11.21t7.12,13q0,8.49-6.67,12t-21.2,3.48a100.67,100.67,0,0,1-25.89-3,162,162,0,0,1-19.54-6.36l-6.36,30.59a169.69,169.69,0,0,0,17.87,5.6q12.72,3.48,33.62,3.49,31.18,0,48-11.66t16.81-34.38a53.76,53.76,0,0,0-2.73-18.17A36.39,36.39,0,0,0,267.43,161.74ZM377.52.46q-32.41,0-48.46,17.42T313,65.88V235.49h36.64V107.68H407.2V77.09H349.65V66.49a61.61,61.61,0,0,1,1.52-14.09,27.16,27.16,0,0,1,5.15-11A24.27,24.27,0,0,1,366,34.23a38,38,0,0,1,14.84-2.57,67.68,67.68,0,0,1,14.69,1.51,57.65,57.65,0,0,1,12,3.94l7-30.29a128.77,128.77,0,0,0-14.54-4.09A99.14,99.14,0,0,0,377.52.46ZM530.77,77.09q-6.94,28.47-15.38,58.91T497.3,193.39q-5.78-13-11.56-28.16T474.8,134.79q-5.16-15.3-9.58-30.14t-7.44-27.56H418.7a798.51,798.51,0,0,0,28.44,83.59q16,39.38,33.31,72.69-6.09,14.24-14.15,21t-22.36,6.81a59.46,59.46,0,0,1-21.6-4.24l-6.66,29.38a56.53,56.53,0,0,0,12.58,3.94,84.19,84.19,0,0,0,39.26-1.06A50.78,50.78,0,0,0,485.11,280,69.45,69.45,0,0,0,499.36,264a164.28,164.28,0,0,0,12.43-23.32q32.34-73.29,56.84-163.55Z" transform="translate(-0.45 -0.46)"/><path class="cls-2" d="M730.62,182.51H599a12.37,12.37,0,0,1-12.37-12.37V88.24A12.37,12.37,0,0,1,599,75.87H730.62A12.37,12.37,0,0,1,743,88.24v81.9A12.37,12.37,0,0,1,730.62,182.51Zm-94.11-20.14a1.33,1.33,0,0,0,.3.87,2.1,2.1,0,0,0,1,.62,8.88,8.88,0,0,0,1.91.38q1.18.12,3,.12t3-.12a9.12,9.12,0,0,0,1.92-.38,2.11,2.11,0,0,0,1-.62,1.33,1.33,0,0,0,.3-.87V118.14a1.35,1.35,0,0,0-.3-.87,2.38,2.38,0,0,0-1-.65,8.84,8.84,0,0,0-1.92-.42,30.68,30.68,0,0,0-6.06,0,8.6,8.6,0,0,0-1.91.42,2.36,2.36,0,0,0-1,.65,1.35,1.35,0,0,0-.3.87Zm-14.07-11.45q-1.59-1.57-5.71-1.57t-5.84,1.59q-1.62,1.59-1.62,6.26,0,4.38,1.59,5.94t5.77,1.57q4.17,0,5.79-1.59t1.61-6.21Q624,152.49,622.44,150.92Zm26-52.94q-1.5-1.41-5.67-1.41T637.08,98q-1.51,1.45-1.52,5.24,0,3.63,1.47,5c1,.93,2.87,1.39,5.69,1.39s4.69-.48,5.72-1.44S650,105.55,650,103,649.48,98.93,648.49,98Zm55.36,37a35,35,0,0,0-.84-8.25,16.66,16.66,0,0,0-2.76-6,13.32,13.32,0,0,0-5-4,17.45,17.45,0,0,0-7.63-1.49,16.86,16.86,0,0,0-7.93,2,28.23,28.23,0,0,0-7.48,6V118a1.51,1.51,0,0,0-.25-.87,1.84,1.84,0,0,0-.81-.62,5.9,5.9,0,0,0-1.62-.37,21.27,21.27,0,0,0-2.63-.13,20.05,20.05,0,0,0-2.56.13,6.83,6.83,0,0,0-1.67.37,1.8,1.8,0,0,0-.89.62,1.51,1.51,0,0,0-.25.87v44.33a1.33,1.33,0,0,0,.3.87,2.05,2.05,0,0,0,1,.62,8.75,8.75,0,0,0,1.91.38q1.18.12,3,.12t3-.12a9.12,9.12,0,0,0,1.92-.38,2.16,2.16,0,0,0,1-.62,1.33,1.33,0,0,0,.3-.87V132.9a26.26,26.26,0,0,1,5.07-5.07,8.29,8.29,0,0,1,4.82-1.74,7.24,7.24,0,0,1,3.31.72,6.13,6.13,0,0,1,2.31,2,10,10,0,0,1,1.37,3.16,21.54,21.54,0,0,1,.47,5.07v25.29a1.33,1.33,0,0,0,.3.87,2.14,2.14,0,0,0,1,.62,8.51,8.51,0,0,0,1.91.38c.82.08,1.83.12,3.06.12s2.2,0,3-.12a8.51,8.51,0,0,0,1.91-.38,2.12,2.12,0,0,0,1-.62,1.38,1.38,0,0,0,.29-.87ZM92.47,1.7l52.9,25.59-38,16.59Z" transform="translate(-0.45 -0.46)"/></svg>