<?xml version="1.0" encoding="utf-8"?>
<!-- Generator: Adobe Illustrator 23.0.3, SVG Export Plug-In . SVG Version: 6.00 Build 0)  -->
<svg version="1.1" id="Layer_1" xmlns="http://www.w3.org/2000/svg" xmlns:xlink="http://www.w3.org/1999/xlink" x="0px" y="0px"
	 viewBox="0 0 147 58" style="enable-background:new 0 0 147 58;" xml:space="preserve">
<style type="text/css">
	.st0{fill:#0066B3;}
	.st1{fill-rule:evenodd;clip-rule:evenodd;fill:#7EC349;}
	.st2{fill:#FFFFFF;}
</style>
<g>
	<g>
		<path class="st0" d="M8.6,39.7c-0.4-0.4-0.6-0.9-0.7-1.5c-0.1-0.6-0.2-1.3-0.2-2.2V0.3L0.5,1.5v35.8c0,1.5,0.2,2.9,0.5,4.1
			c0.3,1.2,0.9,2.2,1.8,3c0.8,0.8,2,1.4,3.4,1.9c1.4,0.4,3.2,0.7,5.3,0.7l1-6c-1-0.1-1.7-0.3-2.4-0.5C9.5,40.4,9,40.1,8.6,39.7z
			 M18.3,46.5h7.2V15.4h-7.2V46.5z M52.9,32c-0.8-0.8-1.8-1.5-2.9-2.1c-1.2-0.6-2.6-1.2-4.3-1.9c-1-0.4-1.9-0.7-2.6-1
			c-0.7-0.3-1.3-0.7-1.7-1c-0.4-0.3-0.7-0.7-0.9-1.1c-0.2-0.4-0.3-0.9-0.3-1.4c0-1,0.5-1.8,1.4-2.3c0.9-0.5,2.1-0.7,3.6-0.7
			c1.6,0,3.1,0.1,4.3,0.4c1.2,0.3,2.2,0.6,3,1l1.3-5.8c-0.8-0.3-2.1-0.6-3.7-1c-1.7-0.3-3.4-0.5-5.2-0.5c-3.6,0-6.5,0.8-8.6,2.5
			C34,18.7,33,21,33,23.8c0,1.5,0.2,2.7,0.7,3.7c0.5,1,1.1,1.9,1.9,2.6c0.8,0.7,1.7,1.3,2.8,1.9c1.1,0.5,2.3,1,3.6,1.5
			c2.1,0.8,3.7,1.5,4.6,2.2c0.9,0.7,1.4,1.5,1.4,2.6c0,1.1-0.4,1.9-1.3,2.4c-0.9,0.5-2.3,0.7-4.2,0.7c-1.9,0-3.6-0.2-5.1-0.6
			c-1.5-0.4-2.8-0.8-3.8-1.2l-1.2,6c0.7,0.3,1.8,0.6,3.5,1.1c1.7,0.5,3.9,0.7,6.6,0.7c4.1,0,7.2-0.8,9.4-2.3s3.3-3.8,3.3-6.8
			c0-1.4-0.2-2.6-0.5-3.6C54.3,33.7,53.7,32.8,52.9,32z M74.6,0.3c-4.2,0-7.4,1.1-9.5,3.4c-2.1,2.3-3.2,5.4-3.2,9.4v33.3h7.2V21.4
			h11.3v-6H69.1v-2.1c0-1,0.1-1.9,0.3-2.8c0.2-0.9,0.5-1.6,1-2.2c0.5-0.6,1.1-1.1,1.9-1.4c0.8-0.3,1.8-0.5,2.9-0.5
			c1,0,2,0.1,2.9,0.3c0.9,0.2,1.7,0.5,2.4,0.8l1.4-6c-0.6-0.2-1.6-0.5-2.9-0.8C77.7,0.5,76.2,0.3,74.6,0.3z M104.7,15.4
			c-0.9,3.7-1.9,7.6-3,11.6c-1.1,4-2.3,7.7-3.6,11.3c-0.8-1.7-1.5-3.6-2.3-5.5c-0.8-2-1.5-4-2.1-6c-0.7-2-1.3-4-1.9-5.9
			c-0.6-1.9-1.1-3.7-1.5-5.4h-7.7c1.6,5.8,3.5,11.3,5.6,16.4c2.1,5.2,4.3,9.9,6.5,14.3c-0.8,1.9-1.7,3.2-2.8,4.1
			c-1.1,0.9-2.5,1.3-4.4,1.3c-1.4,0-2.8-0.3-4.2-0.8l-1.3,5.8c0.6,0.3,1.4,0.5,2.5,0.8c1.1,0.2,2.2,0.4,3.3,0.4
			c1.7,0,3.1-0.2,4.4-0.6c1.3-0.4,2.4-1,3.5-1.8c1-0.8,2-1.9,2.8-3.2c0.8-1.3,1.6-2.8,2.4-4.6c4.2-9.6,8-20.3,11.2-32.1H104.7z"/>
	</g>
</g>
<g>
	<path class="st1" d="M18.2,0.9l10.4,5l-7.5,3.3L18.2,0.9z"/>
	<path class="st1" d="M117.7,15.5h25.9c1.3,0,2.4,1.1,2.4,2.4V34c0,1.3-1.1,2.4-2.4,2.4h-25.9c-1.3,0-2.4-1.1-2.4-2.4V17.9
		C115.3,16.6,116.4,15.5,117.7,15.5z"/>
	<path class="st2" d="M122.3,30.2c-0.2-0.2-0.6-0.3-1.1-0.3c-0.6,0-0.9,0.1-1.1,0.3c-0.2,0.2-0.3,0.6-0.3,1.2c0,0.6,0.1,1,0.3,1.2
		c0.2,0.2,0.6,0.3,1.1,0.3s0.9-0.1,1.1-0.3c0.2-0.2,0.3-0.6,0.3-1.2C122.6,30.8,122.5,30.5,122.3,30.2z"/>
	<path class="st2" d="M127.5,23.8c0-0.1,0-0.1-0.1-0.2c0,0-0.1-0.1-0.2-0.1c-0.1,0-0.2-0.1-0.4-0.1c-0.2,0-0.4,0-0.6,0
		c-0.2,0-0.4,0-0.6,0c-0.2,0-0.3,0-0.4,0.1c-0.1,0-0.2,0.1-0.2,0.1c0,0-0.1,0.1-0.1,0.2v8.7c0,0.1,0,0.1,0.1,0.2
		c0,0,0.1,0.1,0.2,0.1c0.1,0,0.2,0.1,0.4,0.1c0.2,0,0.4,0,0.6,0c0.2,0,0.4,0,0.6,0c0.2,0,0.3,0,0.4-0.1c0.1,0,0.2-0.1,0.2-0.1
		c0,0,0.1-0.1,0.1-0.2V23.8z M127.4,19.8c-0.2-0.2-0.6-0.3-1.1-0.3c-0.6,0-0.9,0.1-1.1,0.3c-0.2,0.2-0.3,0.5-0.3,1
		c0,0.5,0.1,0.8,0.3,1c0.2,0.2,0.6,0.3,1.1,0.3c0.5,0,0.9-0.1,1.1-0.3c0.2-0.2,0.3-0.5,0.3-1C127.7,20.4,127.6,20,127.4,19.8z"/>
	<path class="st2" d="M138.3,27.1c0-0.6-0.1-1.2-0.2-1.6s-0.3-0.8-0.5-1.2c-0.3-0.3-0.6-0.6-1-0.8c-0.4-0.2-0.9-0.3-1.5-0.3
		c-0.5,0-1.1,0.1-1.6,0.4c-0.5,0.3-1,0.7-1.5,1.2v-1c0-0.1,0-0.1,0-0.2c0,0-0.1-0.1-0.2-0.1c-0.1,0-0.2-0.1-0.3-0.1
		c-0.1,0-0.3,0-0.5,0c-0.2,0-0.4,0-0.5,0c-0.1,0-0.2,0-0.3,0.1c-0.1,0-0.1,0.1-0.2,0.1c0,0,0,0.1,0,0.2v8.7c0,0.1,0,0.1,0.1,0.2
		c0,0,0.1,0.1,0.2,0.1c0.1,0,0.2,0.1,0.4,0.1c0.2,0,0.4,0,0.6,0c0.2,0,0.4,0,0.6,0c0.2,0,0.3,0,0.4-0.1c0.1,0,0.2-0.1,0.2-0.1
		c0,0,0.1-0.1,0.1-0.2v-5.8c0.3-0.4,0.7-0.8,1-1c0.3-0.2,0.6-0.3,0.9-0.3c0.2,0,0.5,0,0.6,0.1c0.2,0.1,0.3,0.2,0.5,0.4
		c0.1,0.2,0.2,0.4,0.3,0.6c0.1,0.2,0.1,0.6,0.1,1v5c0,0.1,0,0.1,0.1,0.2c0,0,0.1,0.1,0.2,0.1c0.1,0,0.2,0.1,0.4,0.1
		c0.2,0,0.4,0,0.6,0c0.2,0,0.4,0,0.6,0c0.2,0,0.3,0,0.4-0.1c0.1,0,0.2-0.1,0.2-0.1c0,0,0.1-0.1,0.1-0.2V27.1z"/>
</g>
</svg>
